<?xml version="1.0" encoding="UTF-8"?>
<svg id="Layer_1" data-name="Layer 1" xmlns="http://www.w3.org/2000/svg" viewBox="0 0 525.92 505.49">
  <defs>
    <style>
      .cls-1 {
        fill: #af33fa;
        stroke-width: 0px;
      }
    </style>
  </defs>
  <path class="cls-1" d="M413.76,107.88c-13.13-9.94-27.73-16.8-42.88-20.73-6.13-17.88-16.88-34.48-32.19-47.93C294.46.38,226.73,2.6,185.14,44.26c-14.65,14.68-24.37,32.31-29.24,50.92-22.5,3.42-44.09,13.71-61.18,30.82-45.01,45.08-42.6,118.63,5.27,160.67,19.78,17.37,44.35,26.34,69.1,27.1-10.99,26.75-18.89,49.67-22.99,62.17-1.03,3.15,3.34,6.5,5.26,3.8,44.13-61.96,97.98-79.8,138.6-76.25,38.79,3.39,87,40.53,142.66-17.4,49.2-51.21,37.75-135.35-18.86-178.21ZM367.41,217.91c-10.55,13.81-29.59,18.85-45.59,12.06-11.11-4.72-18.68-13.72-21.94-24.04-1.33,4.08-3.36,8.04-6.16,11.7-10.55,13.81-29.59,18.85-45.59,12.06-11.11-4.72-18.68-13.72-21.94-24.04-1.33,4.08-3.36,8.04-6.16,11.7-10.55,13.81-29.59,18.85-45.59,12.06-23.48-9.97-31.18-39.07-15.7-59.34,10.55-13.81,29.59-18.85,45.59-12.06,11.11,4.72,18.68,13.72,21.94,24.04,1.33-4.08,3.36-8.04,6.16-11.7,10.55-13.81,29.59-18.85,45.59-12.06,11.11,4.72,18.68,13.72,21.94,24.04,1.33-4.08,3.36-8.04,6.16-11.7,10.55-13.81,29.59-18.85,45.59-12.06,23.48,9.97,31.18,39.07,15.7,59.34Z"/>
  <g>
    <path class="cls-1" d="M75.92,418.83c-2.85-3.12-6.2-5.58-10.04-7.39-3.85-1.81-8.03-2.71-12.55-2.71s-8.57.9-12.41,2.71c-3.84,1.81-6.94,4.43-9.29,7.87v-8.95H11.96v83.82h19.67v-25.49c2.35,3.53,5.45,6.13,9.29,7.8,3.84,1.67,7.98,2.51,12.41,2.51s8.7-.9,12.55-2.71c3.84-1.81,7.19-4.29,10.04-7.46,2.85-3.16,5.09-6.87,6.72-11.12,1.63-4.25,2.44-8.86,2.44-13.84s-.81-9.61-2.44-13.9c-1.63-4.29-3.87-8-6.72-11.12ZM64.05,450.64c-.9,2.08-2.13,3.91-3.66,5.49-1.54,1.58-3.35,2.83-5.43,3.73-2.08.9-4.34,1.36-6.78,1.36s-4.7-.45-6.78-1.36c-2.08-.9-3.89-2.15-5.43-3.73-1.54-1.58-2.76-3.41-3.66-5.49-.9-2.08-1.36-4.34-1.36-6.78s.45-4.7,1.36-6.78c.9-2.08,2.12-3.91,3.66-5.49,1.54-1.58,3.34-2.83,5.43-3.73,2.08-.9,4.34-1.36,6.78-1.36s4.7.45,6.78,1.36c2.08.9,3.89,2.15,5.43,3.73,1.54,1.58,2.76,3.42,3.66,5.49.9,2.08,1.36,4.34,1.36,6.78s-.45,4.7-1.36,6.78Z"/>
    <path class="cls-1" d="M154.35,418.76c-3.26-3.16-7.1-5.65-11.53-7.46-4.43-1.81-9.22-2.71-14.38-2.71s-9.95.9-14.38,2.71c-4.43,1.81-8.28,4.3-11.53,7.46-3.26,3.17-5.81,6.9-7.66,11.19-1.85,4.3-2.78,8.93-2.78,13.9s.93,9.61,2.78,13.9c1.85,4.3,4.41,8.03,7.66,11.19,3.26,3.17,7.1,5.65,11.53,7.46,4.43,1.81,9.22,2.71,14.38,2.71s9.95-.91,14.38-2.71c4.43-1.81,8.28-4.29,11.53-7.46,3.26-3.16,5.81-6.9,7.66-11.19,1.85-4.29,2.78-8.93,2.78-13.9s-.93-9.61-2.78-13.9c-1.86-4.29-4.41-8.03-7.66-11.19ZM143.9,450.64c-.91,2.08-2.1,3.89-3.6,5.43-1.49,1.54-3.28,2.76-5.36,3.66-2.08.9-4.25,1.36-6.51,1.36s-4.54-.45-6.58-1.36c-2.03-.9-3.8-2.12-5.29-3.66-1.49-1.54-2.69-3.34-3.6-5.43-.9-2.08-1.36-4.34-1.36-6.78s.45-4.7,1.36-6.78c.9-2.08,2.1-3.89,3.6-5.43,1.49-1.54,3.26-2.76,5.29-3.66,2.03-.9,4.23-1.36,6.58-1.36s4.43.45,6.51,1.36c2.08.91,3.87,2.13,5.36,3.66,1.49,1.54,2.69,3.35,3.6,5.43.9,2.08,1.36,4.34,1.36,6.78s-.45,4.7-1.36,6.78Z"/>
    <path class="cls-1" d="M236.7,418.83c-2.85-3.12-6.2-5.58-10.04-7.39-3.85-1.81-8.03-2.71-12.55-2.71s-8.57.9-12.41,2.71c-3.84,1.81-6.94,4.43-9.29,7.87v-8.95h-19.67v83.82h19.67v-25.49c2.35,3.53,5.45,6.13,9.29,7.8,3.84,1.67,7.98,2.51,12.41,2.51s8.7-.9,12.55-2.71c3.84-1.81,7.19-4.29,10.04-7.46,2.85-3.16,5.09-6.87,6.72-11.12,1.63-4.25,2.44-8.86,2.44-13.84s-.81-9.61-2.44-13.9c-1.63-4.29-3.87-8-6.72-11.12ZM224.83,450.64c-.9,2.08-2.13,3.91-3.66,5.49-1.54,1.58-3.35,2.83-5.43,3.73-2.08.9-4.34,1.36-6.78,1.36s-4.7-.45-6.78-1.36c-2.08-.9-3.89-2.15-5.43-3.73-1.54-1.58-2.76-3.41-3.66-5.49-.9-2.08-1.36-4.34-1.36-6.78s.45-4.7,1.36-6.78c.9-2.08,2.12-3.91,3.66-5.49,1.54-1.58,3.34-2.83,5.43-3.73,2.08-.9,4.34-1.36,6.78-1.36s4.7.45,6.78,1.36c2.08.9,3.89,2.15,5.43,3.73,1.54,1.58,2.76,3.42,3.66,5.49.9,2.08,1.36,4.34,1.36,6.78s-.45,4.7-1.36,6.78Z"/>
    <path class="cls-1" d="M302.85,452.7c-.72,1.23-1.56,2.36-2.53,3.37-1.49,1.54-3.28,2.76-5.36,3.66-.36.16-.73.28-1.1.42-1.74.62-3.54.94-5.41.94-2.35,0-4.54-.45-6.58-1.36-2.03-.9-3.8-2.12-5.29-3.66-1.49-1.54-2.69-3.34-3.6-5.43-.9-2.08-1.36-4.34-1.36-6.78s.45-4.7,1.36-6.78c.9-2.08,2.1-3.89,3.6-5.43,1.49-1.54,3.26-2.76,5.29-3.66,2.03-.9,4.23-1.36,6.58-1.36,1.87,0,3.67.33,5.41.94.37.13.74.26,1.1.41,2.08.91,3.87,2.13,5.36,3.66.97,1,1.81,2.13,2.53,3.37,0,0,10.42-13.81,12.14-15.58-.22-.22-.41-.46-.63-.68-3.26-3.16-7.1-5.65-11.53-7.46-4.43-1.81-9.22-2.71-14.38-2.71s-9.95.9-14.38,2.71c-4.43,1.81-8.28,4.3-11.53,7.46-3.26,3.17-5.81,6.9-7.66,11.19-1.85,4.3-2.78,8.93-2.78,13.9s.93,9.61,2.78,13.9c1.85,4.3,4.41,8.03,7.66,11.19,3.26,3.17,7.1,5.65,11.53,7.46,4.43,1.81,9.22,2.71,14.38,2.71s9.95-.91,14.38-2.71c4.43-1.81,8.28-4.29,11.53-7.46.22-.22.42-.46.63-.68-1.72-1.77-12.14-15.57-12.14-15.57Z"/>
    <path class="cls-1" d="M387.19,429.96c-1.86-4.29-4.41-8.03-7.66-11.19-3.26-3.16-7.1-5.65-11.53-7.46-4.43-1.81-9.22-2.71-14.38-2.71s-9.95.9-14.38,2.71c-4.43,1.81-8.28,4.3-11.53,7.46-.22.22-.42.46-.63.68-2.94,3.02-5.31,6.51-7.03,10.51-1.73,4.01-2.62,8.34-2.74,12.94.02.32.05.63.05.96s-.03.64-.05.96c.11,4.61,1,8.93,2.74,12.94,1.73,4,4.09,7.49,7.03,10.51.22.22.41.46.63.68,3.26,3.17,7.1,5.65,11.53,7.46,4.43,1.81,9.22,2.71,14.38,2.71s9.95-.91,14.38-2.71c4.43-1.81,8.28-4.29,11.53-7.46,3.26-3.16,5.81-6.9,7.66-11.19,1.85-4.29,2.78-8.93,2.78-13.9s-.93-9.61-2.78-13.9ZM369.08,450.64c-.91,2.08-2.1,3.89-3.6,5.43-1.49,1.54-3.28,2.76-5.36,3.66-2.08.9-4.25,1.36-6.51,1.36s-4.54-.45-6.58-1.36c-2.03-.9-3.8-2.12-5.29-3.66-1.49-1.54-2.69-3.34-3.6-5.43-.78-1.8-1.21-3.75-1.31-5.82-.02-.32-.05-.63-.05-.96s.03-.64.05-.96c.1-2.07.53-4.02,1.31-5.82.9-2.08,2.1-3.89,3.6-5.43,1.49-1.54,3.26-2.76,5.29-3.66,2.03-.9,4.23-1.36,6.58-1.36s4.43.45,6.51,1.36c2.08.91,3.87,2.13,5.36,3.66,1.49,1.54,2.69,3.35,3.6,5.43.9,2.08,1.36,4.34,1.36,6.78s-.45,4.7-1.36,6.78Z"/>
    <path class="cls-1" d="M436.72,408.86c-4.34,0-8.19,1.11-11.53,3.32-3.35,2.22-5.92,5.27-7.73,9.16v-10.99h-19.53v67.02h19.67v-27.27c0-6.6,1.54-11.8,4.61-15.6,3.07-3.8,7.37-5.7,12.89-5.7,2.26,0,3.93.27,5.02.81v-20.35c-.18-.09-.61-.18-1.29-.27-.68-.09-1.38-.14-2.1-.14Z"/>
    <path class="cls-1" d="M507.38,415.91c-4.39-4.88-10.42-7.32-18.11-7.32-4.52,0-8.43.9-11.73,2.71-3.3,1.81-5.99,4.34-8.07,7.6v-8.55h-19.81v67.02h19.81v-35.54c0-4.7,1.15-8.39,3.46-11.06,2.31-2.67,5.36-4,9.16-4s6.87,1.2,8.95,3.59c2.08,2.4,3.12,5.81,3.12,10.24v36.76h19.81v-41.38c0-8.5-2.19-15.19-6.58-20.08Z"/>
  </g>
</svg>